<?xml version="1.0" standalone="no"?>
<!DOCTYPE svg PUBLIC "-//W3C//DTD SVG 20010904//EN"
 "http://www.w3.org/TR/2001/REC-SVG-20010904/DTD/svg10.dtd">
<svg version="1.0" xmlns="http://www.w3.org/2000/svg"
 width="512.000000pt" height="512.000000pt" viewBox="0 0 512.000000 512.000000"
 preserveAspectRatio="xMidYMid meet">
<metadata>
Created by potrace 1.14, written by Peter Selinger 2001-2017
</metadata>
<g transform="translate(0.000000,512.000000) scale(0.100000,-0.100000)"
fill="#000000" stroke="none">
<path d="M1008 5005 c-2 -2 -23 -6 -48 -9 -71 -10 -178 -67 -240 -128 -55 -55
-111 -153 -125 -215 -5 -25 -12 -33 -28 -34 -176 -5 -218 -9 -269 -27 -69 -25
-132 -66 -179 -119 -91 -100 -116 -180 -118 -368 -2 -132 -1 -136 23 -160 34
-34 78 -33 105 1 19 24 21 41 22 153 1 146 14 197 71 265 59 70 126 97 253
103 l105 6 0 -347 0 -346 -47 -24 c-86 -44 -137 -110 -158 -200 -16 -74 -13
-508 5 -561 19 -59 53 -108 98 -144 62 -48 108 -63 207 -67 50 -2 92 -4 95 -4
3 0 5 -45 5 -101 l0 -101 -115 5 c-137 5 -156 9 -240 50 -130 64 -239 204
-269 345 -7 33 -11 175 -11 371 0 307 -1 319 -21 345 -27 34 -77 36 -108 2
l-22 -24 4 -353 c2 -195 6 -361 9 -369 2 -8 10 -35 17 -60 39 -137 142 -272
272 -356 105 -68 200 -96 349 -102 69 -2 127 -6 130 -9 3 -2 5 -123 5 -269 l0
-264 -140 -1 c-165 -1 -171 -2 -247 -35 -59 -27 -133 -95 -161 -150 -38 -74
-39 -120 -37 -1347 l0 -198 26 -26 c20 -20 31 -24 57 -19 61 12 62 14 67 274
l5 237 298 0 297 0 0 -228 c0 -127 4 -236 10 -246 5 -10 22 -24 39 -30 24 -10
34 -10 59 3 16 8 32 23 36 31 3 9 6 333 6 719 0 737 -2 774 -45 840 l-15 23
267 -2 c240 -1 273 -4 315 -21 111 -46 185 -123 225 -237 22 -61 22 -69 23
-684 0 -342 3 -629 6 -638 9 -22 54 -43 84 -39 14 2 33 14 43 25 16 20 17 64
17 647 -1 691 -1 700 -63 816 -96 181 -271 282 -492 285 l-40 1 2 247 c1 137
2 258 2 270 1 22 1 22 237 23 205 0 241 3 285 20 112 42 199 139 225 250 4 19
8 292 8 605 l1 570 56 6 c107 12 179 63 222 159 19 42 21 66 21 330 0 284 0
286 -24 335 -34 68 -100 109 -173 108 -58 0 -98 -18 -232 -104 -44 -29 -98
-60 -121 -70 -34 -16 -115 -25 -171 -20 -9 1 -13 24 -13 79 0 146 -48 235
-155 284 -48 22 -61 23 -317 24 -148 0 -269 0 -270 -1z m538 -162 c35 -20 54
-74 54 -152 0 -67 -1 -71 -22 -72 -13 0 -122 -1 -243 -3 -238 -2 -262 -7 -317
-60 -63 -60 -63 -59 -66 -428 l-3 -338 -110 0 -110 0 3 413 3 412 28 57 c43
87 113 146 211 175 46 14 547 10 572 -4z m779 -200 c16 -21 11 -514 -5 -553
-25 -60 -28 -60 -479 -60 -459 0 -461 0 -498 -69 -17 -30 -19 -52 -17 -128 2
-67 -1 -103 -12 -130 -26 -63 -33 -66 -62 -30 -38 45 -61 63 -109 88 l-43 21
0 319 0 320 24 24 23 23 379 0 c310 1 388 3 428 16 41 12 146 72 264 148 58
38 85 41 107 11z m-293 -775 c2 -7 3 -263 3 -568 -1 -401 -5 -565 -13 -591
-13 -37 -59 -86 -102 -110 -19 -11 -110 -15 -408 -19 l-384 -5 -19 -24 c-10
-13 -19 -36 -19 -51 0 -44 32 -64 114 -70 l71 -5 1 -268 0 -267 -170 2 -171 3
0 443 c0 386 2 442 15 442 142 5 200 23 268 85 23 20 54 62 69 93 27 56 28 60
30 262 1 113 2 212 3 220 0 8 17 33 37 55 83 92 123 194 123 312 l0 73 274 0
c210 0 275 -3 278 -12z m-959 -242 c39 -16 71 -51 84 -91 6 -17 10 -133 9
-265 -1 -234 -1 -235 -26 -268 -46 -62 -63 -66 -290 -68 -213 -3 -245 2 -289
43 -38 36 -44 71 -46 293 -1 118 2 231 6 251 12 47 44 88 83 105 44 19 424 20
469 0z m-221 -1917 c45 -31 71 -63 86 -108 18 -50 17 -817 0 -823 -7 -2 -141
-4 -298 -3 l-285 0 0 410 c0 410 0 410 23 450 26 46 77 84 124 94 18 4 96 7
173 6 132 -1 143 -3 177 -26z"/>
<path d="M3817 4226 c-79 -29 -119 -81 -130 -171 -6 -47 10 -91 66 -179 l51
-81 0 -348 1 -348 -23 -6 c-13 -3 -44 -21 -69 -40 -25 -19 -53 -33 -62 -30
-19 5 -816 294 -849 307 -55 24 -140 2 -174 -45 -26 -35 -192 -495 -191 -531
1 -42 29 -99 59 -119 23 -15 230 -92 709 -265 105 -37 221 -80 259 -94 37 -14
80 -26 95 -26 59 0 92 73 54 118 -10 12 -85 45 -173 77 -85 31 -177 65 -204
75 -27 11 -55 20 -62 20 -7 0 -16 5 -19 10 -4 6 29 107 72 224 l78 213 35 -13
c19 -7 85 -30 145 -52 l110 -39 1 -59 c3 -156 127 -277 283 -277 44 0 81 6
111 20 44 19 123 86 131 111 4 12 5 12 180 -54 l66 -25 -75 -207 c-41 -114
-78 -211 -83 -216 -4 -5 -76 16 -168 49 -179 64 -202 66 -227 11 -15 -30 -15
-36 -1 -63 11 -20 30 -35 59 -46 327 -119 338 -122 389 -105 53 18 77 60 145
244 111 301 117 324 104 374 -19 71 -39 84 -257 162 -77 27 -93 37 -93 54 0
78 -75 184 -157 223 l-49 23 0 233 0 233 27 -18 c52 -38 134 -44 190 -14 15 7
33 14 40 14 11 0 295 -161 524 -297 50 -29 101 -56 114 -60 35 -9 74 16 85 54
15 56 2 68 -234 201 -98 55 -360 209 -378 222 -22 15 -22 15 26 97 26 45 50
85 54 88 3 3 134 -68 289 -158 374 -216 341 -200 383 -183 60 25 59 101 -2
137 -15 8 -101 58 -192 111 -91 52 -181 104 -200 114 -81 45 -200 116 -204
123 -2 3 -7 27 -11 51 -8 55 -36 103 -78 134 -56 41 -58 41 -357 50 -133 4
-184 2 -213 -8z m418 -151 c22 -1 46 -3 53 -4 7 0 17 -13 22 -27 9 -22 -2 -46
-89 -197 -93 -161 -118 -191 -148 -180 -7 3 -63 84 -125 181 -156 247 -156
245 81 236 91 -4 184 -8 206 -9z m-1280 -960 c105 -38 194 -72 198 -75 8 -7
-19 -88 -82 -255 -11 -27 -29 -78 -42 -112 -12 -35 -27 -63 -33 -63 -11 0
-398 139 -405 145 -8 8 154 435 164 432 5 -2 96 -35 200 -72z m982 -172 c125
-59 80 -243 -61 -246 -101 -3 -165 120 -106 204 40 55 105 72 167 42z"/>
</g>
</svg>
